<svg width="41" height="41" viewBox="0 0 41 41" fill="none" xmlns="http://www.w3.org/2000/svg">
<path d="M34.0102 10.8379C33.0291 11.3065 31.9746 11.623 30.868 11.7654C31.9975 11.0364 32.8651 9.88206 33.2735 8.50648C32.2163 9.18164 31.0455 9.67175 29.7992 9.9359C28.8014 8.79102 27.3795 8.07581 25.8059 8.07581C22.7846 8.07581 20.3348 10.7131 20.3348 13.9662C20.3348 14.4279 20.3832 14.8775 20.4766 15.3086C15.9296 15.063 11.8984 12.7178 9.2 9.15393C8.72906 10.0239 8.4592 11.0357 8.4592 12.1153C8.4592 14.159 9.42506 15.9619 10.8931 17.0182C9.99626 16.9876 9.15266 16.7226 8.41506 16.2815C8.41444 16.306 8.41444 16.3307 8.41444 16.3556C8.41444 19.2095 10.3003 21.5901 12.8031 22.1316C12.344 22.2663 11.8607 22.3382 11.3618 22.3382C11.0092 22.3382 10.6666 22.3012 10.3324 22.2326C11.0287 24.5727 13.0491 26.2758 15.4433 26.3231C13.5708 27.9031 11.2119 28.8449 8.64858 28.8449C8.20697 28.8449 7.77151 28.8169 7.34351 28.7625C9.76471 30.4339 12.6404 31.4091 15.7301 31.4091C25.7931 31.4091 31.2962 22.4334 31.2962 14.6491C31.2962 14.3937 31.2909 14.1397 31.2803 13.8869C32.3491 13.0566 33.2766 12.0192 34.0101 10.8379H34.0102Z" fill="white"/>
</svg>
