<svg width="24" height="25" viewBox="0 0 24 25" fill="none" xmlns="http://www.w3.org/2000/svg">
<path d="M13.3067 8.97957C13.3067 9.69608 12.7258 10.2769 12.0093 10.2769C11.2928 10.2769 10.712 9.69608 10.712 8.97957C10.712 8.26306 11.2928 7.68222 12.0093 7.68222C12.7258 7.68222 13.3067 8.26306 13.3067 8.97957Z" fill="white"/>
<path d="M10.712 12.5822C10.712 11.8614 11.2963 11.277 12.0172 11.277C12.7381 11.277 13.3224 11.8614 13.3224 12.5822V15.8485C13.3224 16.5693 12.7381 17.1537 12.0172 17.1537C11.2963 17.1537 10.712 16.5693 10.712 15.8485V12.5822Z" fill="white"/>
<path fill-rule="evenodd" clip-rule="evenodd" d="M20 12.3584C20 16.7671 16.426 20.3412 12.0172 20.3412C7.60844 20.3412 4.03442 16.7671 4.03442 12.3584C4.03442 7.94961 7.60844 4.3756 12.0172 4.3756C16.426 4.3756 20 7.94961 20 12.3584ZM18.2266 12.3584C18.2266 15.7877 15.4466 18.5678 12.0172 18.5678C8.58784 18.5678 5.80779 15.7877 5.80779 12.3584C5.80779 8.92901 8.58784 6.14896 12.0172 6.14896C15.4466 6.14896 18.2266 8.92901 18.2266 12.3584Z" fill="white"/>
</svg>
