<svg width="49" height="49" viewBox="0 0 49 49" fill="none" xmlns="http://www.w3.org/2000/svg">
<circle cx="24.1855" cy="24.418" r="24" fill="#1DA1F2"/>
<path d="M35.3243 16.6843C34.5002 17.0779 33.6144 17.3438 32.6849 17.4634C33.6337 16.851 34.3625 15.8814 34.7055 14.7259C33.8175 15.293 32.834 15.7047 31.7871 15.9266C30.9489 14.9649 29.7545 14.3641 28.4327 14.3641C25.8948 14.3641 23.837 16.5795 23.837 19.312C23.837 19.6999 23.8777 20.0775 23.9561 20.4397C20.1366 20.2333 16.7504 18.2634 14.4838 15.2698C14.0882 16.0005 13.8615 16.8504 13.8615 17.7573C13.8615 19.474 14.6728 20.9885 15.9059 21.8758C15.1526 21.8501 14.444 21.6275 13.8244 21.2569C13.8239 21.2775 13.8239 21.2983 13.8239 21.3191C13.8239 23.7164 15.408 25.7162 17.5104 26.171C17.1248 26.2842 16.7188 26.3446 16.2997 26.3446C16.0035 26.3446 15.7157 26.3135 15.435 26.2558C16.0199 28.2215 17.717 29.6521 19.7281 29.6919C18.1553 31.0191 16.1738 31.8102 14.0206 31.8102C13.6496 31.8102 13.2838 31.7867 12.9243 31.741C14.9581 33.145 17.3737 33.9641 19.969 33.9641C28.422 33.9641 33.0446 26.4245 33.0446 19.8857C33.0446 19.6712 33.0401 19.4578 33.0313 19.2455C33.9291 18.548 34.7081 17.6766 35.3242 16.6843H35.3243Z" fill="white"/>
</svg>
