<svg width="25" height="25" viewBox="0 0 25 25" fill="none" xmlns="http://www.w3.org/2000/svg">
<path fill-rule="evenodd" clip-rule="evenodd" d="M12.1516 20.8242C16.5886 20.8242 20.1855 17.2273 20.1855 12.7903C20.1855 8.35331 16.5886 4.75641 12.1516 4.75641C7.71458 4.75641 4.11768 8.35331 4.11768 12.7903C4.11768 17.2273 7.71458 20.8242 12.1516 20.8242ZM12.1516 7.46082C11.1744 7.46082 10.4158 8.31301 10.529 9.28362L11.1197 14.3482C11.1808 14.8719 11.6244 15.2667 12.1516 15.2667C12.6788 15.2667 13.1224 14.8719 13.1835 14.3482L13.7742 9.28362C13.8874 8.31301 13.1288 7.46082 12.1516 7.46082ZM12.1516 18.1198C12.7108 18.1198 13.1641 17.6665 13.1641 17.1073C13.1641 16.548 12.7108 16.0947 12.1516 16.0947C11.5924 16.0947 11.139 16.548 11.139 17.1073C11.139 17.6665 11.5924 18.1198 12.1516 18.1198Z" fill="#B92622"/>
</svg>
