<svg width="24" height="25" viewBox="0 0 24 25" fill="none" xmlns="http://www.w3.org/2000/svg">
<path d="M4.45308 14.8185C4.02925 15.1726 3.97273 15.8033 4.32683 16.2271C4.68093 16.6509 5.31157 16.7074 5.7354 16.3533L4.45308 14.8185ZM12.0313 9.79016L12.6758 9.02561C12.3047 8.71276 11.7626 8.71155 11.3901 9.02275L12.0313 9.79016ZM18.2613 16.3505C18.6835 16.7065 19.3144 16.6528 19.6704 16.2305C20.0264 15.8083 19.9727 15.1774 19.5504 14.8214L18.2613 16.3505ZM5.7354 16.3533L12.6724 10.5576L11.3901 9.02275L4.45308 14.8185L5.7354 16.3533ZM11.3867 10.5547L18.2613 16.3505L19.5504 14.8214L12.6758 9.02561L11.3867 10.5547Z" fill="#64748B"/>
</svg>
