<svg width="24" height="24" viewBox="0 0 21 21" fill="none" xmlns="http://www.w3.org/2000/svg">
<path d="M16.6949 8.74446C17.1187 8.39036 17.1752 7.75972 16.8211 7.33589C16.467 6.91206 15.8364 6.85554 15.4126 7.20964L16.6949 8.74446ZM10.2729 12.8069L9.62829 13.5714C9.99938 13.8843 10.5415 13.8855 10.914 13.5743L10.2729 12.8069ZM5.18861 7.2125C4.76636 6.85652 4.13548 6.91023 3.77949 7.33248C3.42351 7.75473 3.47722 8.38561 3.89947 8.7416L5.18861 7.2125ZM15.4126 7.20964L9.6317 12.0395L10.914 13.5743L16.6949 8.74446L15.4126 7.20964ZM10.9174 12.0423L5.18861 7.2125L3.89947 8.7416L9.62829 13.5714L10.9174 12.0423Z" fill="#64748B"/>
</svg>
