<svg width="24" height="25" viewBox="0 0 24 25" fill="none" xmlns="http://www.w3.org/2000/svg">
<path d="M14.1305 20.4337C14.4846 20.8575 15.1152 20.9141 15.539 20.56C15.9629 20.2059 16.0194 19.5752 15.6653 19.1514L14.1305 20.4337ZM9.10209 12.8555L8.33755 12.211C8.02469 12.5821 8.02349 13.1242 8.33469 13.4967L9.10209 12.8555ZM15.6624 6.62552C16.0184 6.20327 15.9647 5.57239 15.5424 5.2164C15.1202 4.86042 14.4893 4.91413 14.1333 5.33638L15.6624 6.62552ZM15.6653 19.1514L9.8695 12.2144L8.33469 13.4967L14.1305 20.4337L15.6653 19.1514ZM9.86664 13.5001L15.6624 6.62552L14.1333 5.33638L8.33755 12.211L9.86664 13.5001Z" fill="#64748B"/>
</svg>
