<svg width="25" height="25" viewBox="0 0 25 25" fill="none" xmlns="http://www.w3.org/2000/svg">
<path d="M20.0469 9.88323C20.4707 9.52913 20.5273 8.89849 20.1732 8.47466C19.8191 8.05084 19.1884 7.99431 18.7646 8.34841L20.0469 9.88323ZM12.4687 14.9116L11.8242 15.6761C12.1953 15.989 12.7374 15.9902 13.1099 15.679L12.4687 14.9116ZM6.23872 8.35127C5.81648 7.99529 5.1856 8.04901 4.82961 8.47125C4.47362 8.8935 4.52734 9.52438 4.94959 9.88037L6.23872 8.35127ZM18.7646 8.34841L11.8276 14.1442L13.1099 15.679L20.0469 9.88323L18.7646 8.34841ZM13.1133 14.1471L6.23872 8.35127L4.94959 9.88037L11.8242 15.6761L13.1133 14.1471Z" fill="#F8FAFC"/>
</svg>
