<svg width="24" height="25" viewBox="0 0 24 25" fill="none" xmlns="http://www.w3.org/2000/svg">
<path d="M6.0865 5.48748C5.69598 5.09696 5.06281 5.09696 4.67229 5.48748C4.28177 5.878 4.28177 6.51117 4.67229 6.90169L6.0865 5.48748ZM17.9612 20.1906C18.3517 20.5811 18.9849 20.5811 19.3754 20.1906C19.7659 19.8001 19.7659 19.1669 19.3754 18.7764L17.9612 20.1906ZM19.3754 6.90169C19.7659 6.51116 19.7659 5.878 19.3754 5.48747C18.9849 5.09695 18.3517 5.09695 17.9612 5.48747L19.3754 6.90169ZM4.67229 18.7764C4.28176 19.1669 4.28176 19.8001 4.67229 20.1906C5.06281 20.5811 5.69598 20.5811 6.0865 20.1906L4.67229 18.7764ZM4.67229 6.90169L11.3167 13.5461L12.7309 12.1319L6.0865 5.48748L4.67229 6.90169ZM11.3167 13.5461L17.9612 20.1906L19.3754 18.7764L12.7309 12.1319L11.3167 13.5461ZM17.9612 5.48747L11.3167 12.1319L12.7309 13.5461L19.3754 6.90169L17.9612 5.48747ZM11.3167 12.1319L4.67229 18.7764L6.0865 20.1906L12.7309 13.5461L11.3167 12.1319Z" fill="#64748B"/>
</svg>
