<svg width="25" height="25" viewBox="0 0 25 25" fill="none" xmlns="http://www.w3.org/2000/svg">
<path d="M12.1855 14.5503C13.511 14.5503 14.5855 13.5429 14.5855 12.3003C14.5855 11.0576 13.511 10.0503 12.1855 10.0503C10.8601 10.0503 9.78555 11.0576 9.78555 12.3003C9.78555 13.5429 10.8601 14.5503 12.1855 14.5503Z" fill="#64748B"/>
<path fill-rule="evenodd" clip-rule="evenodd" d="M20.1855 12.3003C20.1855 15.614 16.6038 18.3003 12.1855 18.3003C7.76727 18.3003 4.18555 15.614 4.18555 12.3003C4.18555 8.98655 7.76727 6.30026 12.1855 6.30026C16.6038 6.30026 20.1855 8.98655 20.1855 12.3003ZM16.9855 12.3003C16.9855 14.7855 14.8365 16.8003 12.1855 16.8003C9.53458 16.8003 7.38555 14.7855 7.38555 12.3003C7.38555 9.81498 9.53458 7.80026 12.1855 7.80026C14.8365 7.80026 16.9855 9.81498 16.9855 12.3003Z" fill="#64748B"/>
</svg>
