<svg width="49" height="49" viewBox="0 0 49 49" fill="none" xmlns="http://www.w3.org/2000/svg">
<circle cx="24.1855" cy="24.418" r="24" fill="#4267B2"/>
<path fill-rule="evenodd" clip-rule="evenodd" d="M26.1142 37.6128C25.4845 37.7041 24.8404 37.7513 24.1854 37.7513C23.9437 37.7513 23.7036 37.7449 23.4651 37.7322C23.7036 37.7448 23.9437 37.7511 24.1854 37.7511C24.8405 37.7511 25.4845 37.703 26.1142 37.6128ZM26.2686 37.5895V28.2728H29.3755L29.9661 24.4177H26.2686V21.9164C26.2686 20.8627 26.7842 19.8333 28.4417 19.8333H30.1236V16.552C30.1236 16.552 28.5974 16.2914 27.1386 16.2914C24.0935 16.2914 22.1023 18.1364 22.1023 21.4796V24.4177H18.7159V28.2728H22.1023V37.5895C15.7279 36.5894 10.8521 31.0731 10.8521 24.418C10.8521 17.0542 16.8216 11.0847 24.1854 11.0847C31.5492 11.0847 37.5187 17.0542 37.5187 24.418C37.5187 31.0731 32.6429 36.5894 26.2686 37.5895Z" fill="white"/>
</svg>
