<svg width="25" height="25" viewBox="0 0 25 25" fill="none" xmlns="http://www.w3.org/2000/svg">
<path d="M4.34326 18.0046C4.34326 17.4523 4.79098 17.0046 5.34326 17.0046H19.3195C19.8717 17.0046 20.3195 17.4523 20.3195 18.0046C20.3195 18.5569 19.8717 19.0046 19.3195 19.0046H5.34326C4.79098 19.0046 4.34326 18.5569 4.34326 18.0046Z" fill="#94A3B8"/>
<path d="M11.3684 7.00493L14.5687 9.12277L16.9248 7.6791C17.6954 7.20691 18.698 7.39125 19.2502 8.10667C19.5815 8.53581 19.4525 9.15923 18.9781 9.42163L9.34078 14.7522C9.17914 14.8416 8.99589 14.8845 8.81136 14.8761L7.23502 14.8045C7.14198 14.8002 7.05198 14.7701 6.97515 14.7175L4.78259 13.2155L5.91703 12.5635C6.1981 12.402 6.54004 12.3867 6.83438 12.5226L8.02036 13.07L11.4582 10.9963L8.60244 7.94043L10.325 6.96804C10.6521 6.78337 11.0551 6.79762 11.3684 7.00493Z" fill="#94A3B8"/>
</svg>
