<svg width="41" height="41" viewBox="0 0 41 41" fill="none" xmlns="http://www.w3.org/2000/svg">
<path d="M30.1388 29.4334H26.1875V23.2455C26.1875 21.7699 26.1611 19.8704 24.1324 19.8704C22.0744 19.8704 21.7595 21.478 21.7595 23.138V29.4329H17.8083V16.7081H21.6014V18.447H21.6546C22.427 17.1265 23.8683 16.3349 25.3972 16.3916C29.402 16.3916 30.1405 19.0258 30.1405 22.4528L30.1388 29.4334ZM13.3499 14.9686C12.092 14.9686 11.0564 13.9337 11.0564 12.6758C11.0564 11.4178 12.0915 10.3827 13.3494 10.3827C14.6072 10.3827 15.6422 11.4176 15.6424 12.6753C15.6424 13.9329 14.6076 14.9685 13.3499 14.9686ZM15.3255 29.4334H11.3701V16.7081H15.3255V29.4334ZM32.1086 6.71339H9.38448C8.31778 6.70134 7.42975 7.56873 7.41675 8.63544V31.4539C7.42927 32.5212 8.31718 33.3895 9.38448 33.3781H32.1086C33.1785 33.3915 34.0695 32.5233 34.0838 31.4539V8.63389C34.0695 7.56491 33.1773 6.69764 32.1086 6.71172V6.71339Z" fill="white"/>
</svg>
