<svg width="41" height="41" viewBox="0 0 41 41" fill="none" xmlns="http://www.w3.org/2000/svg">
<path fill-rule="evenodd" clip-rule="evenodd" d="M22.6777 33.2399C22.0483 33.331 21.4047 33.3782 20.7501 33.3782C20.5088 33.3782 20.269 33.3718 20.0308 33.3591C20.269 33.3717 20.5088 33.378 20.7501 33.378C21.4048 33.378 22.0484 33.33 22.6777 33.2399ZM22.8333 33.2164V23.8997H25.9402L26.5308 20.0446H22.8333V17.5433C22.8333 16.4896 23.3489 15.4602 25.0064 15.4602H26.6883V12.1789C26.6883 12.1789 25.162 11.9183 23.7033 11.9183C20.6582 11.9183 18.6669 13.7633 18.6669 17.1065V20.0446H15.2806V23.8997H18.6669V33.2164C12.2926 32.2163 7.41675 26.7 7.41675 20.0449C7.41675 12.6811 13.3863 6.71155 20.7501 6.71155C28.1139 6.71155 34.0834 12.6811 34.0834 20.0449C34.0834 26.7 29.2076 32.2163 22.8333 33.2164Z" fill="white"/>
</svg>
