<svg width="25" height="25" viewBox="0 0 25 25" fill="none" xmlns="http://www.w3.org/2000/svg">
<path d="M12.6219 18.8235C16.3389 18.8235 19.3522 15.8102 19.3522 12.0932C19.3522 8.37617 16.3389 5.36292 12.6219 5.36292M12.6219 18.8235C8.90485 18.8235 5.8916 15.8102 5.8916 12.0932C5.8916 8.37617 8.90485 5.36292 12.6219 5.36292M12.6219 18.8235C14.2728 18.8235 15.6112 15.8102 15.6112 12.0932C15.6112 8.37616 14.2728 5.36292 12.6219 5.36292M12.6219 18.8235C10.9709 18.8235 9.63255 15.8102 9.63255 12.0932C9.63255 8.37616 10.9709 5.36292 12.6219 5.36292M6.3198 9.72572H18.924M6.25547 14.2818H18.9883" stroke="#F8FAFC" stroke-width="1.5"/>
</svg>
