<svg width="24" height="24" viewBox="0 0 24 24" fill="none" xmlns="http://www.w3.org/2000/svg">
<path d="M13.3067 8.56101C13.3067 9.27751 12.7258 9.85836 12.0093 9.85836C11.2928 9.85836 10.712 9.27751 10.712 8.56101C10.712 7.8445 11.2928 7.26366 12.0093 7.26366C12.7258 7.26366 13.3067 7.8445 13.3067 8.56101Z" fill="#94A3B8"/>
<path d="M10.712 12.1636C10.712 11.4428 11.2963 10.8584 12.0172 10.8584C12.7381 10.8584 13.3224 11.4428 13.3224 12.1637V15.4299C13.3224 16.1508 12.7381 16.7351 12.0172 16.7351C11.2963 16.7351 10.712 16.1508 10.712 15.4299V12.1636Z" fill="#94A3B8"/>
<path fill-rule="evenodd" clip-rule="evenodd" d="M20 11.9398C20 16.3486 16.426 19.9226 12.0172 19.9226C7.60844 19.9226 4.03442 16.3486 4.03442 11.9398C4.03442 7.53104 7.60844 3.95703 12.0172 3.95703C16.426 3.95703 20 7.53104 20 11.9398ZM18.2266 11.9398C18.2266 15.3692 15.4466 18.1492 12.0172 18.1492C8.58784 18.1492 5.80779 15.3692 5.80779 11.9398C5.80779 8.51044 8.58784 5.73039 12.0172 5.73039C15.4466 5.73039 18.2266 8.51044 18.2266 11.9398Z" fill="#94A3B8"/>
</svg>
