<svg width="24" height="25" viewBox="0 0 24 25" fill="none" xmlns="http://www.w3.org/2000/svg">
<path d="M4.01196 7.41797C4.01196 6.86568 4.45968 6.41797 5.01196 6.41797H19.0001C19.5523 6.41797 20.0001 6.86568 20.0001 7.41797C20.0001 7.97025 19.5523 8.41797 19.0001 8.41797H5.01196C4.45968 8.41797 4.01196 7.97025 4.01196 7.41797Z" fill="#64748B"/>
<path d="M4.01196 12.418C4.01196 11.8657 4.45968 11.418 5.01196 11.418H19.0001C19.5523 11.418 20.0001 11.8657 20.0001 12.418C20.0001 12.9703 19.5523 13.418 19.0001 13.418H5.01196C4.45968 13.418 4.01196 12.9703 4.01196 12.418Z" fill="#64748B"/>
<path d="M5.01196 16.418C4.45968 16.418 4.01196 16.8657 4.01196 17.418C4.01196 17.9703 4.45968 18.418 5.01196 18.418H19.0001C19.5523 18.418 20.0001 17.9703 20.0001 17.418C20.0001 16.8657 19.5523 16.418 19.0001 16.418H5.01196Z" fill="#64748B"/>
</svg>
