<svg width="25" height="24" viewBox="0 0 25 24" fill="none" xmlns="http://www.w3.org/2000/svg">
<path fill-rule="evenodd" clip-rule="evenodd" d="M15.0806 16.2297C14.1015 16.8359 12.947 17.1857 11.7108 17.1857C8.16997 17.1857 5.29956 14.3153 5.29956 10.7745C5.29956 7.23369 8.16997 4.36328 11.7108 4.36328C15.2516 4.36328 18.122 7.23369 18.122 10.7745C18.122 12.3734 17.5368 13.8355 16.5688 14.9584L19.2264 18.0178C19.5808 18.4259 19.5373 19.044 19.1293 19.3984C18.7213 19.7528 18.1032 19.7094 17.7487 19.3013L15.0806 16.2297ZM16.2332 10.7745C16.2332 13.2722 14.2085 15.297 11.7108 15.297C9.21311 15.297 7.18834 13.2722 7.18834 10.7745C7.18834 8.27683 9.21311 6.25206 11.7108 6.25206C14.2085 6.25206 16.2332 8.27683 16.2332 10.7745Z" fill="#64748B"/>
</svg>
