<svg width="25" height="25" viewBox="0 0 25 25" fill="none" xmlns="http://www.w3.org/2000/svg">
<path fill-rule="evenodd" clip-rule="evenodd" d="M12.3116 4.97437C10.6564 4.97437 9.3146 6.31617 9.3146 7.97137V9.0097H9.23679C8.20333 9.0097 7.34006 9.79708 7.24523 10.8262L6.61383 17.6781C6.50582 18.8501 7.42835 19.8616 8.60539 19.8616H16.1404C17.3174 19.8616 18.2399 18.8501 18.1319 17.6781L17.5005 10.8262C17.4057 9.79708 16.5424 9.0097 15.509 9.0097H15.3086V7.97137C15.3086 6.31617 13.9668 4.97437 12.3116 4.97437ZM10.8662 8.00188V9.0097H13.7569V8.00188C13.7569 7.20365 13.1098 6.55655 12.3116 6.55655C11.5133 6.55655 10.8662 7.20365 10.8662 8.00188ZM9.403 10.521C9.04149 10.521 8.73945 10.7963 8.706 11.1562L8.13915 17.2578C8.08468 17.8441 8.54605 18.3504 9.13486 18.3504H15.611C16.1998 18.3504 16.6612 17.8441 16.6067 17.2578L16.0399 11.1562C16.0064 10.7963 15.7044 10.521 15.3429 10.521H9.403Z" fill="#64748B"/>
</svg>
