<svg width="101" height="101" viewBox="0 0 101 101" fill="none" xmlns="http://www.w3.org/2000/svg">
<path d="M10.7856 43.0571C10.7856 38.5172 13.3477 34.366 17.4058 32.3306L40.6717 20.6616C44.0911 18.9466 48.1232 18.9646 51.5271 20.7101L74.1388 32.3053C78.1441 34.3592 80.6632 38.4819 80.6632 42.9832V76.9172C80.6632 81.3354 77.0815 84.9172 72.6632 84.9172H18.7857C14.3674 84.9172 10.7856 81.3354 10.7856 76.9172V43.0571Z" fill="#486DB9"/>
<path d="M10.7856 78.1672L37.6381 51.968C42.3364 47.384 49.846 47.4257 54.4931 52.0614L80.6632 78.1672C80.6632 81.8951 77.6411 84.9171 73.9133 84.9171H17.5356C13.8077 84.9171 10.7856 81.8951 10.7856 78.1672Z" fill="#224CA1"/>
<path d="M15.1377 42.7672C15.1377 40.4972 16.4187 38.4216 18.4478 37.4039L42.4369 25.3721C44.7165 24.2288 47.4046 24.2408 49.6739 25.4045L73.0492 37.3913C75.0519 38.4182 76.3114 40.4796 76.3114 42.7302V45.5003C76.3114 47.1635 75.2822 48.6532 73.7265 49.2416L51.6617 57.5869C48.0518 58.9522 44.0701 58.9667 40.4503 57.6277L17.7499 49.2302C16.18 48.6495 15.1377 47.1526 15.1377 45.4787V42.7672Z" fill="#97AFE0"/>
<path d="M20.3599 23.6649C20.3599 19.2466 23.9416 15.6649 28.3599 15.6649H63.1062C67.5244 15.6649 71.1062 19.2466 71.1062 23.6649V50.228L49.308 58.6219C47.2519 59.4136 44.9768 59.4236 42.9138 58.65L20.3599 50.1926L20.3599 23.6649Z" fill="#CBD6ED"/>
<path d="M24.9722 24.2645C24.9722 22.0554 26.763 20.2645 28.9722 20.2645H62.6676C64.8768 20.2645 66.6676 22.0554 66.6676 24.2645V51.8455L49.3512 58.5812C47.2732 59.3894 44.9692 59.3976 42.8856 58.6041L24.9722 51.7823V24.2645Z" fill="white"/>
<rect x="29.8203" y="25.1834" width="16.4411" height="9.69602" rx="2" fill="#CBD6ED"/>
<rect x="29.8203" y="38.8795" width="32" height="5" rx="2.5" fill="#CBD6ED"/>
<rect x="29.8203" y="46.8795" width="32" height="5" rx="2.5" fill="#CBD6ED"/>
<circle cx="73.5768" cy="44.2054" r="16.6373" fill="#5BAA4F"/>
<path fill-rule="evenodd" clip-rule="evenodd" d="M72.9204 50.9321C72.886 50.9711 72.8501 51.0093 72.8128 51.0466C71.8365 52.0229 70.2536 52.0229 69.2773 51.0466L64.2005 45.9698C63.2242 44.9935 63.2242 43.4106 64.2005 42.4343C65.1768 41.4579 66.7597 41.4579 67.736 42.4343L71.0416 45.7399L79.4172 37.3643C80.3935 36.388 81.9764 36.388 82.9527 37.3643C83.929 38.3406 83.929 39.9235 82.9527 40.8998L72.9204 50.9321Z" fill="white"/>
</svg>
