<svg width="17" height="16" viewBox="0 0 17 16" fill="none" xmlns="http://www.w3.org/2000/svg">
<path d="M5.22595 2.57733C5.22595 3.50411 3.90652 5.17253 3.34253 5.84337C3.21025 6.00069 2.97321 6.00069 2.84094 5.84337C2.27695 5.17253 0.95752 3.50411 0.95752 2.57733C0.95752 1.39864 1.91304 0.443115 3.09173 0.443115C4.27043 0.443115 5.22595 1.39864 5.22595 2.57733Z" fill="#94A3B8"/>
<path d="M17 12.0227C17 12.9494 15.6806 14.6179 15.1166 15.2887C14.9843 15.446 14.7473 15.446 14.615 15.2887C14.051 14.6179 12.7316 12.9494 12.7316 12.0227C12.7316 10.844 13.6871 9.88846 14.8658 9.88846C16.0445 9.88846 17 10.844 17 12.0227Z" fill="#94A3B8"/>
<path d="M16.0055 6.09001C16.0055 7.63712 14.7513 8.8913 13.2042 8.8913L4.80281 8.89195C4.22797 8.89195 3.76198 9.35795 3.76198 9.93279C3.76198 10.5076 4.22797 10.9736 4.80281 10.9736L10.7754 10.9736C11.2616 10.9736 11.6557 11.3677 11.6557 11.8538C11.6557 12.34 11.2616 12.7341 10.7754 12.7341L4.8137 12.7341C3.26659 12.7341 2.01241 11.4799 2.01241 9.93279C2.01241 8.38568 3.26659 7.1315 4.8137 7.1315L13.2151 7.13085C13.7899 7.13085 14.2559 6.66485 14.2559 6.09002C14.2559 5.51518 13.7899 5.04918 13.2151 5.04918H7.24248C6.75634 5.04918 6.36225 4.65509 6.36225 4.16895C6.36225 3.68281 6.75634 3.28872 7.24248 3.28872L13.2042 3.28872C14.7513 3.28872 16.0055 4.5429 16.0055 6.09001Z" fill="#94A3B8"/>
</svg>
