<svg width="38" height="38" viewBox="0 0 38 38" fill="none" xmlns="http://www.w3.org/2000/svg">
<path d="M36.0671 18.8361C36.0671 28.4751 28.3272 36.2733 18.7989 36.2733C9.27065 36.2733 1.53076 28.4751 1.53076 18.8361C1.53076 9.19712 9.27065 1.39893 18.7989 1.39893C28.3272 1.39893 36.0671 9.19712 36.0671 18.8361Z" fill="white" stroke="#224CA1" stroke-width="2"/>
<path d="M12.3628 15.6846C11.8105 15.6846 11.3628 16.1323 11.3628 16.6846C11.3628 17.2369 11.8105 17.6846 12.3628 17.6846V15.6846ZM25.2323 16.6846V17.6846C25.671 17.6846 26.0585 17.3987 26.1878 16.9795C26.3172 16.5603 26.1583 16.1057 25.7958 15.8585L25.2323 16.6846ZM19.8049 11.7716C19.3486 11.4603 18.7265 11.5779 18.4152 12.0341C18.104 12.4903 18.2216 13.1125 18.6778 13.4237L19.8049 11.7716ZM25.2323 21.9877C25.7846 21.9877 26.2323 21.54 26.2323 20.9877C26.2323 20.4355 25.7846 19.9877 25.2323 19.9877V21.9877ZM12.3628 20.9877V19.9877C11.9241 19.9877 11.5366 20.2737 11.4073 20.6929C11.2779 21.112 11.4368 21.5666 11.7993 21.8138L12.3628 20.9877ZM17.7902 25.9008C18.2465 26.212 18.8686 26.0945 19.1799 25.6382C19.4911 25.182 19.3735 24.5598 18.9173 24.2486L17.7902 25.9008ZM12.3628 17.6846H25.2323V15.6846H12.3628V17.6846ZM25.7958 15.8585L19.8049 11.7716L18.6778 13.4237L24.6688 17.5107L25.7958 15.8585ZM25.2323 19.9877H12.3628V21.9877H25.2323V19.9877ZM11.7993 21.8138L17.7902 25.9008L18.9173 24.2486L12.9263 20.1617L11.7993 21.8138Z" fill="#224CA1"/>
</svg>
