<svg width="40" height="41" viewBox="0 0 40 41" fill="none" xmlns="http://www.w3.org/2000/svg">
<rect x="1.00049" y="39.1934" width="38" height="38" rx="19" transform="rotate(-90 1.00049 39.1934)" fill="white"/>
<path d="M16.8489 26.6875C16.8489 27.2398 17.2966 27.6875 17.8489 27.6875C18.4012 27.6875 18.8489 27.2398 18.8489 26.6875L16.8489 26.6875ZM17.8489 13.6989L18.8489 13.6989C18.8489 13.2594 18.562 12.8714 18.1417 12.7428C17.7215 12.6141 17.2665 12.7748 17.0204 13.1389L17.8489 13.6989ZM12.9335 19.1853C12.6242 19.6429 12.7444 20.2645 13.202 20.5738C13.6595 20.8831 14.2812 20.7629 14.5905 20.3053L12.9335 19.1853ZM23.152 13.6989C23.152 13.1466 22.7043 12.6989 22.152 12.6989C21.5998 12.6989 21.152 13.1466 21.152 13.6989L23.152 13.6989ZM22.152 26.6875L21.152 26.6875C21.152 27.127 21.439 27.515 21.8592 27.6437C22.2794 27.7724 22.7344 27.6116 22.9805 27.2475L22.152 26.6875ZM27.0675 21.2011C27.3768 20.7435 27.2565 20.1219 26.799 19.8126C26.3414 19.5033 25.7198 19.6235 25.4105 20.0811L27.0675 21.2011ZM18.8489 26.6875L18.8489 13.6989L16.8489 13.6989L16.8489 26.6875L18.8489 26.6875ZM17.0204 13.1389L12.9335 19.1853L14.5905 20.3053L18.6774 14.2589L17.0204 13.1389ZM21.152 13.6989L21.152 26.6875L23.152 26.6875L23.152 13.6989L21.152 13.6989ZM22.9805 27.2475L27.0675 21.2011L25.4105 20.0811L21.3236 26.1275L22.9805 27.2475Z" fill="#224CA1"/>
<rect x="1.00049" y="39.1934" width="38" height="38" rx="19" transform="rotate(-90 1.00049 39.1934)" stroke="#224CA1" stroke-width="2"/>
</svg>
