<svg width="41" height="41" viewBox="0 0 41 41" fill="none" xmlns="http://www.w3.org/2000/svg">
<path d="M20.8218 9.09207C24.3253 9.09207 24.7402 9.10546 26.1239 9.16858C27.4032 9.22697 28.0979 9.44067 28.5603 9.62035C29.1302 9.83069 29.6457 10.1661 30.0689 10.6019C30.5047 11.0251 30.8401 11.5406 31.0504 12.1105C31.2301 12.5729 31.4438 13.2676 31.5022 14.5469C31.5653 15.9305 31.5787 16.3454 31.5787 19.8489C31.5787 23.3525 31.5653 23.7673 31.5022 25.151C31.4438 26.4303 31.23 27.125 31.0504 27.5874C30.8321 28.1533 30.4978 28.6672 30.0689 29.096C29.64 29.5249 29.1261 29.8592 28.5603 30.0775C28.0979 30.2572 27.4032 30.471 26.1239 30.5293C24.7406 30.5924 24.3256 30.6058 20.8218 30.6058C17.318 30.6058 16.9032 30.5924 15.5197 30.5293C14.2405 30.4709 13.5458 30.2572 13.0834 30.0775C12.5135 29.8672 11.998 29.5318 11.5747 29.096C11.1389 28.6728 10.8036 28.1573 10.5932 27.5874C10.4135 27.125 10.1998 26.4303 10.1414 25.151C10.0783 23.7675 10.0649 23.3525 10.0649 19.8489C10.0649 16.3454 10.0783 15.9306 10.1414 14.5469C10.1998 13.2676 10.4135 12.5729 10.5932 12.1105C10.8036 11.5406 11.139 11.025 11.5748 10.6018C11.9981 10.166 12.5136 9.83064 13.0835 9.6203C13.5458 9.44061 14.2406 9.22686 15.5198 9.16853C16.9034 9.1054 17.3184 9.09202 20.8219 9.09202L20.8218 9.09207ZM20.8219 6.72791C17.2585 6.72791 16.8115 6.74301 15.4122 6.80686C14.0156 6.87061 13.0619 7.09238 12.2273 7.41676C11.3518 7.74622 10.5587 8.26269 9.90332 8.93014C9.23571 9.58548 8.7191 10.3786 8.38952 11.2541C8.06541 12.0887 7.84364 13.0425 7.78015 14.4391C7.71603 15.8384 7.70093 16.2854 7.70093 19.8488C7.70093 23.4122 7.71603 23.8592 7.78015 25.2585C7.8439 26.6551 8.06567 27.6088 8.39004 28.4434C8.7195 29.3189 9.23597 30.112 9.90343 30.7674C10.5588 31.4348 11.3519 31.9513 12.2274 32.2808C13.062 32.6051 14.0158 32.8269 15.4123 32.8907C16.8118 32.9545 17.2586 32.9696 20.822 32.9696C24.3854 32.9696 24.8324 32.9545 26.2317 32.8907C27.6283 32.8269 28.5821 32.6051 29.4167 32.2808C30.2883 31.9437 31.0798 31.4282 31.7406 30.7674C32.4014 30.1066 32.9169 29.315 33.254 28.4434C33.5784 27.6088 33.8001 26.655 33.8639 25.2585C33.9278 23.859 33.9429 23.4122 33.9429 19.8488C33.9429 16.2854 33.9278 15.8384 33.8639 14.4391C33.8001 13.0425 33.5784 12.0887 33.254 11.2542C32.9245 10.3787 32.4081 9.58558 31.7406 8.9302C31.0852 8.2626 30.2921 7.74603 29.4165 7.4165C28.5819 7.09238 27.6281 6.87061 26.2315 6.80712C24.8322 6.74301 24.3853 6.72791 20.8218 6.72791H20.8219Z" fill="white"/>
<path d="M20.8217 13.111C19.4891 13.111 18.1865 13.5061 17.0784 14.2465C15.9704 14.9868 15.1068 16.0391 14.5969 17.2703C14.0869 18.5015 13.9535 19.8562 14.2135 21.1632C14.4734 22.4702 15.1151 23.6707 16.0574 24.613C16.9997 25.5553 18.2003 26.197 19.5073 26.457C20.8143 26.717 22.169 26.5836 23.4002 26.0736C24.6313 25.5636 25.6836 24.7 26.424 23.592C27.1643 22.484 27.5595 21.1813 27.5595 19.8487C27.5595 18.0618 26.8496 16.348 25.5861 15.0844C24.3225 13.8208 22.6087 13.111 20.8217 13.111ZM20.8217 24.2223C19.9567 24.2223 19.1111 23.9658 18.3919 23.4852C17.6727 23.0046 17.1121 22.3216 16.7811 21.5224C16.4501 20.7232 16.3635 19.8438 16.5322 18.9954C16.701 18.1471 17.1176 17.3678 17.7292 16.7561C18.3409 16.1445 19.1202 15.7279 19.9686 15.5592C20.817 15.3904 21.6963 15.477 22.4955 15.8081C23.2947 16.1391 23.9777 16.6997 24.4583 17.4189C24.9389 18.1381 25.1954 18.9837 25.1954 19.8487C25.1954 21.0087 24.7346 22.1211 23.9144 22.9413C23.0941 23.7615 21.9817 24.2223 20.8217 24.2223Z" fill="white"/>
<path d="M27.8257 14.4193C28.6953 14.4193 29.4002 13.7144 29.4002 12.8449C29.4002 11.9753 28.6953 11.2704 27.8257 11.2704C26.9561 11.2704 26.2512 11.9753 26.2512 12.8449C26.2512 13.7144 26.9561 14.4193 27.8257 14.4193Z" fill="white"/>
</svg>
