<svg width="41" height="41" viewBox="0 0 41 41" fill="none" xmlns="http://www.w3.org/2000/svg">
<path fill-rule="evenodd" clip-rule="evenodd" d="M7.76782 33.3782C8.48059 31.077 9.30672 28.8892 10.062 26.6307C5.05538 17.8742 11.2513 8.01662 19.6435 7.19777C27.567 6.42455 34.0635 12.1159 34.0832 19.8831C34.1039 28.0787 26.1553 34.9607 17.2143 32.1635C16.5399 31.9526 15.7054 31.265 14.9202 31.2189C13.8227 31.1542 12.3845 31.9422 11.2764 32.2985C10.0619 32.6892 9.00574 33.0808 7.76782 33.3782ZM15.1901 28.7899C22.4102 33.1717 31.0556 28.2569 31.7891 21.0977C32.4528 14.6167 27.2779 8.85005 20.3182 9.35698C12.3726 9.93559 7.59992 19.42 12.491 26.3607C12.058 27.5472 11.6529 28.7615 11.2764 30.0044C12.6021 29.6206 13.8241 29.1332 15.1901 28.7899Z" fill="white"/>
<path fill-rule="evenodd" clip-rule="evenodd" d="M18.0713 13.8103C18.8308 15.3989 20.0055 17.7486 18.0713 18.8036C19.0536 20.8802 20.6777 22.315 22.7945 23.257C23.4985 22.7913 23.9607 22.084 24.5489 21.5027C25.7777 21.9833 26.9262 22.544 27.9226 23.257C28.025 25.5786 26.0687 26.4371 24.414 26.3608C20.923 26.2002 16.1251 21.7899 14.9675 18.5337C14.2805 16.6016 15.0706 12.9062 18.0713 13.8103Z" fill="white"/>
</svg>
