<svg width="49" height="49" viewBox="0 0 49 49" fill="none" xmlns="http://www.w3.org/2000/svg">
<circle cx="24.1855" cy="24.418" r="23.5" fill="white" stroke="#E6E6E6"/>
<path d="M35.1478 24.6701C35.1478 23.9328 35.0825 23.2328 34.9705 22.5515H24.4238V26.7608H30.4625C30.1918 28.1421 29.3985 29.3088 28.2225 30.1021V32.9021H31.8252C33.9345 30.9515 35.1478 28.0768 35.1478 24.6701Z" fill="#4285F4"/>
<path d="M24.4237 35.6181C27.4477 35.6181 29.9771 34.6101 31.8251 32.9021L28.2224 30.1021C27.2144 30.7741 25.9357 31.1848 24.4237 31.1848C21.5024 31.1848 19.0291 29.2155 18.1424 26.5555H14.4277V29.4395C16.2664 33.0981 20.0464 35.6181 24.4237 35.6181Z" fill="#34A853"/>
<path d="M18.1423 26.5555C17.909 25.8835 17.7876 25.1648 17.7876 24.4181C17.7876 23.6715 17.9183 22.9528 18.1423 22.2808V19.3968H14.4276C13.6623 20.9088 13.2236 22.6075 13.2236 24.4181C13.2236 26.2288 13.6623 27.9275 14.4276 29.4395L18.1423 26.5555Z" fill="#FBBC05"/>
<path d="M24.4242 17.6515C26.0762 17.6515 27.5509 18.2208 28.7176 19.3315L31.9096 16.1395C29.9776 14.3288 27.4482 13.2181 24.4242 13.2181C20.0469 13.2181 16.2669 15.7381 14.4282 19.3968L18.1429 22.2808C19.0296 19.6208 21.5029 17.6515 24.4242 17.6515Z" fill="#EA4335"/>
</svg>
