<svg width="17" height="14" viewBox="0 0 17 14" fill="none" xmlns="http://www.w3.org/2000/svg">
<path fill-rule="evenodd" clip-rule="evenodd" d="M12.3272 2.36084C12.3272 1.25627 11.4318 0.36084 10.3272 0.36084L6.27045 0.36084C5.16588 0.36084 4.27045 1.25627 4.27045 2.36084L4.27045 8.30109C4.27045 9.40566 5.16588 10.3011 6.27045 10.3011H10.3272C11.4318 10.3011 12.3272 9.40566 12.3272 8.30109V2.36084ZM10.8088 2.8764C10.8088 2.32412 10.3611 1.8764 9.80883 1.8764H6.78883C6.23654 1.8764 5.78883 2.32412 5.78883 2.87641V7.78551C5.78883 8.3378 6.23654 8.78551 6.78883 8.78551H9.80883C10.3611 8.78551 10.8088 8.3378 10.8088 7.78551V2.8764Z" fill="#94A3B8"/>
<path d="M0.298828 5.02856C0.298828 4.47627 0.746543 4.02856 1.29883 4.02856H2.32959V13.8359L1.29883 13.836C0.746543 13.836 0.298828 13.3882 0.298828 12.836V5.02856Z" fill="#94A3B8"/>
<path d="M3.32959 13.8359V4.02856H13.2682V13.8359H3.32959Z" fill="#94A3B8"/>
<path d="M14.2682 13.8359L15.2988 13.836C15.8511 13.836 16.2988 13.3882 16.2988 12.836V5.02856C16.2988 4.47628 15.8511 4.02856 15.2988 4.02856H14.2682V13.8359Z" fill="#94A3B8"/>
</svg>
