<svg width="35" height="35" viewBox="0 0 35 35" fill="none" xmlns="http://www.w3.org/2000/svg">
<path d="M21.8861 11.5345C21.8861 13.9568 19.9224 15.9205 17.5001 15.9205C15.0778 15.9205 13.1141 13.9568 13.1141 11.5345C13.1141 9.11212 15.0778 7.14843 17.5001 7.14843C19.9224 7.14843 21.8861 9.11212 21.8861 11.5345Z" fill="white"/>
<path d="M26.1807 22.6276C26.1807 25.2203 22.2942 27.3222 17.4999 27.3222C12.7056 27.3222 8.81911 25.2203 8.81911 22.6276C8.81911 20.0349 12.7056 17.933 17.4999 17.933C22.2942 17.933 26.1807 20.0349 26.1807 22.6276Z" fill="white"/>
<path fill-rule="evenodd" clip-rule="evenodd" d="M17.7672 34.3588C27.2242 34.3588 34.8907 26.6924 34.8907 17.2353C34.8907 7.77826 27.2242 0.111816 17.7672 0.111816C8.31013 0.111816 0.643677 7.77826 0.643677 17.2353C0.643677 26.6924 8.31013 34.3588 17.7672 34.3588ZM17.7672 30.8639C25.294 30.8639 31.3957 24.7622 31.3957 17.2353C31.3957 9.70853 25.294 3.60683 17.7672 3.60683C10.2404 3.60683 4.13869 9.70853 4.13869 17.2353C4.13869 24.7622 10.2404 30.8639 17.7672 30.8639Z" fill="white"/>
</svg>
